<svg width="115" height="28" viewBox="0 0 115 28" fill="none" xmlns="http://www.w3.org/2000/svg">
<path d="M53.412 9.214V10.026H49.1V13.68H52.74V14.492H49.1V19H48.12V9.214H53.412ZM54.5763 15.164C54.5763 14.38 54.7303 13.694 55.0383 13.106C55.3556 12.5087 55.7896 12.0513 56.3403 11.734C56.9003 11.4073 57.5303 11.244 58.2303 11.244C58.9583 11.244 59.5836 11.412 60.1063 11.748C60.6383 12.084 61.021 12.5133 61.2543 13.036V11.356H62.2343V19H61.2543V17.306C61.0116 17.8287 60.6243 18.2627 60.0923 18.608C59.5696 18.944 58.9443 19.112 58.2163 19.112C57.5256 19.112 56.9003 18.9487 56.3403 18.622C55.7896 18.2953 55.3556 17.8333 55.0383 17.236C54.7303 16.6387 54.5763 15.948 54.5763 15.164ZM61.2543 15.178C61.2543 14.562 61.1283 14.0207 60.8763 13.554C60.6243 13.0873 60.279 12.728 59.8403 12.476C59.411 12.224 58.935 12.098 58.4123 12.098C57.871 12.098 57.3856 12.2193 56.9563 12.462C56.527 12.7047 56.1863 13.0593 55.9343 13.526C55.6916 13.9833 55.5703 14.5293 55.5703 15.164C55.5703 15.7893 55.6916 16.34 55.9343 16.816C56.1863 17.2827 56.527 17.642 56.9563 17.894C57.3856 18.1367 57.871 18.258 58.4123 18.258C58.935 18.258 59.411 18.132 59.8403 17.88C60.279 17.628 60.6243 17.2687 60.8763 16.802C61.1283 16.3353 61.2543 15.794 61.2543 15.178ZM64.0236 15.178C64.0236 14.3847 64.1822 13.694 64.4996 13.106C64.8169 12.5087 65.2556 12.0513 65.8156 11.734C66.3756 11.4073 67.0149 11.244 67.7336 11.244C68.6762 11.244 69.4509 11.4773 70.0576 11.944C70.6736 12.4107 71.0702 13.0453 71.2476 13.848H70.1976C70.0669 13.2973 69.7822 12.868 69.3436 12.56C68.9142 12.2427 68.3776 12.084 67.7336 12.084C67.2202 12.084 66.7582 12.2007 66.3476 12.434C65.9369 12.6673 65.6102 13.0173 65.3676 13.484C65.1342 13.9413 65.0176 14.506 65.0176 15.178C65.0176 15.85 65.1342 16.4193 65.3676 16.886C65.6102 17.3527 65.9369 17.7027 66.3476 17.936C66.7582 18.1693 67.2202 18.286 67.7336 18.286C68.3776 18.286 68.9142 18.132 69.3436 17.824C69.7822 17.5067 70.0669 17.068 70.1976 16.508H71.2476C71.0702 17.292 70.6736 17.922 70.0576 18.398C69.4416 18.874 68.6669 19.112 67.7336 19.112C67.0149 19.112 66.3756 18.9533 65.8156 18.636C65.2556 18.3093 64.8169 17.852 64.4996 17.264C64.1822 16.6667 64.0236 15.9713 64.0236 15.178ZM79.9735 14.786C79.9735 15.122 79.9642 15.3787 79.9455 15.556H73.6035C73.6315 16.1347 73.7715 16.6293 74.0235 17.04C74.2755 17.4507 74.6068 17.7633 75.0175 17.978C75.4282 18.1833 75.8762 18.286 76.3615 18.286C76.9962 18.286 77.5282 18.132 77.9575 17.824C78.3962 17.516 78.6855 17.1007 78.8255 16.578H79.8615C79.6748 17.3247 79.2735 17.936 78.6575 18.412C78.0508 18.8787 77.2855 19.112 76.3615 19.112C75.6428 19.112 74.9988 18.9533 74.4295 18.636C73.8602 18.3093 73.4122 17.852 73.0855 17.264C72.7682 16.6667 72.6095 15.9713 72.6095 15.178C72.6095 14.3847 72.7682 13.6893 73.0855 13.092C73.4028 12.4947 73.8462 12.0373 74.4155 11.72C74.9848 11.4027 75.6335 11.244 76.3615 11.244C77.0895 11.244 77.7242 11.4027 78.2655 11.72C78.8162 12.0373 79.2362 12.4667 79.5255 13.008C79.8242 13.54 79.9735 14.1327 79.9735 14.786ZM78.9795 14.758C78.9888 14.1887 78.8722 13.7033 78.6295 13.302C78.3962 12.9007 78.0742 12.5973 77.6635 12.392C77.2528 12.1867 76.8048 12.084 76.3195 12.084C75.5915 12.084 74.9708 12.3173 74.4575 12.784C73.9442 13.2507 73.6595 13.9087 73.6035 14.758H78.9795ZM82.7325 13.05C82.9845 12.518 83.3718 12.084 83.8945 11.748C84.4265 11.412 85.0518 11.244 85.7705 11.244C86.4705 11.244 87.0958 11.4073 87.6465 11.734C88.1972 12.0513 88.6265 12.5087 88.9345 13.106C89.2518 13.694 89.4105 14.38 89.4105 15.164C89.4105 15.948 89.2518 16.6387 88.9345 17.236C88.6265 17.8333 88.1925 18.2953 87.6325 18.622C87.0818 18.9487 86.4612 19.112 85.7705 19.112C85.0425 19.112 84.4125 18.9487 83.8805 18.622C83.3578 18.286 82.9752 17.852 82.7325 17.32V19H81.7665V8.64H82.7325V13.05ZM88.4165 15.164C88.4165 14.5293 88.2905 13.9833 88.0385 13.526C87.7958 13.0593 87.4598 12.7047 87.0305 12.462C86.6012 12.2193 86.1158 12.098 85.5745 12.098C85.0518 12.098 84.5712 12.224 84.1325 12.476C83.7032 12.728 83.3625 13.0873 83.1105 13.554C82.8585 14.0207 82.7325 14.562 82.7325 15.178C82.7325 15.794 82.8585 16.3353 83.1105 16.802C83.3625 17.2687 83.7032 17.628 84.1325 17.88C84.5712 18.132 85.0518 18.258 85.5745 18.258C86.1158 18.258 86.6012 18.1367 87.0305 17.894C87.4598 17.642 87.7958 17.2827 88.0385 16.816C88.2905 16.34 88.4165 15.7893 88.4165 15.164ZM94.5598 19.112C93.8411 19.112 93.1924 18.9533 92.6138 18.636C92.0444 18.3093 91.5918 17.852 91.2558 17.264C90.9291 16.6667 90.7658 15.9713 90.7658 15.178C90.7658 14.3847 90.9338 13.694 91.2698 13.106C91.6058 12.5087 92.0631 12.0513 92.6418 11.734C93.2204 11.4073 93.8691 11.244 94.5878 11.244C95.3064 11.244 95.9551 11.4073 96.5338 11.734C97.1218 12.0513 97.5791 12.5087 97.9058 13.106C98.2418 13.694 98.4098 14.3847 98.4098 15.178C98.4098 15.962 98.2418 16.6527 97.9058 17.25C97.5698 17.8473 97.1078 18.3093 96.5198 18.636C95.9318 18.9533 95.2784 19.112 94.5598 19.112ZM94.5598 18.258C95.0638 18.258 95.5304 18.146 95.9598 17.922C96.3891 17.6887 96.7344 17.3433 96.9958 16.886C97.2664 16.4193 97.4018 15.85 97.4018 15.178C97.4018 14.506 97.2711 13.9413 97.0098 13.484C96.7484 13.0173 96.4031 12.672 95.9738 12.448C95.5444 12.2147 95.0778 12.098 94.5738 12.098C94.0698 12.098 93.6031 12.2147 93.1738 12.448C92.7444 12.672 92.3991 13.0173 92.1378 13.484C91.8858 13.9413 91.7598 14.506 91.7598 15.178C91.7598 15.85 91.8858 16.4193 92.1378 16.886C92.3991 17.3433 92.7398 17.6887 93.1598 17.922C93.5891 18.146 94.0558 18.258 94.5598 18.258ZM103.542 19.112C102.824 19.112 102.175 18.9533 101.596 18.636C101.027 18.3093 100.574 17.852 100.238 17.264C99.9115 16.6667 99.7482 15.9713 99.7482 15.178C99.7482 14.3847 99.9162 13.694 100.252 13.106C100.588 12.5087 101.046 12.0513 101.624 11.734C102.203 11.4073 102.852 11.244 103.57 11.244C104.289 11.244 104.938 11.4073 105.516 11.734C106.104 12.0513 106.562 12.5087 106.888 13.106C107.224 13.694 107.392 14.3847 107.392 15.178C107.392 15.962 107.224 16.6527 106.888 17.25C106.552 17.8473 106.09 18.3093 105.502 18.636C104.914 18.9533 104.261 19.112 103.542 19.112ZM103.542 18.258C104.046 18.258 104.513 18.146 104.942 17.922C105.372 17.6887 105.717 17.3433 105.978 16.886C106.249 16.4193 106.384 15.85 106.384 15.178C106.384 14.506 106.254 13.9413 105.992 13.484C105.731 13.0173 105.386 12.672 104.956 12.448C104.527 12.2147 104.06 12.098 103.556 12.098C103.052 12.098 102.586 12.2147 102.156 12.448C101.727 12.672 101.382 13.0173 101.12 13.484C100.868 13.9413 100.742 14.506 100.742 15.178C100.742 15.85 100.868 16.4193 101.12 16.886C101.382 17.3433 101.722 17.6887 102.142 17.922C102.572 18.146 103.038 18.258 103.542 18.258ZM113.309 19L110.159 15.57V19H109.179V8.64H110.159V14.772L113.239 11.356H114.611L110.985 15.164L114.639 19H113.309Z" fill="black"/>
<path d="M14 0C6.2685 0 0 6.30079 0 14.0721C0 21.1269 5.17067 26.9528 11.907 27.9707V17.8012H8.44317V14.1026H11.907V11.6412C11.907 7.56611 13.8822 5.77778 17.2515 5.77778C18.865 5.77778 19.719 5.89856 20.1227 5.95251V9.18089H17.8243C16.394 9.18089 15.8947 10.5447 15.8947 12.0809V14.1026H20.0865L19.5183 17.8012H15.8947V28C22.7278 27.0689 28 21.1961 28 14.0721C28 6.30079 21.7315 0 14 0Z" fill="black" fill-opacity="0.6"/>
</svg>
