<svg width="94" height="24" viewBox="0 0 94 24" fill="none" xmlns="http://www.w3.org/2000/svg">
<path d="M54.846 7.214V8.026H52.13V17H51.15V8.026H48.42V7.214H54.846ZM66.4734 9.356L64.0794 17H63.0994L60.9854 10.588L58.8714 17H57.8774L55.4834 9.356H56.4774L58.3814 16.006L60.5234 9.356H61.5034L63.6174 16.02L65.5074 9.356H66.4734ZM68.2995 7.914C68.1035 7.914 67.9355 7.844 67.7955 7.704C67.6555 7.564 67.5855 7.39133 67.5855 7.186C67.5855 6.98067 67.6555 6.81267 67.7955 6.682C67.9355 6.542 68.1035 6.472 68.2995 6.472C68.4955 6.472 68.6635 6.542 68.8035 6.682C68.9435 6.81267 69.0135 6.98067 69.0135 7.186C69.0135 7.39133 68.9435 7.564 68.8035 7.704C68.6635 7.844 68.4955 7.914 68.2995 7.914ZM68.7895 9.356V17H67.8095V9.356H68.7895ZM72.2827 10.182V14.928C72.2827 15.3947 72.3713 15.7167 72.5487 15.894C72.726 16.0713 73.0387 16.16 73.4867 16.16H74.3827V17H73.3327C72.642 17 72.1287 16.8413 71.7927 16.524C71.4567 16.1973 71.2887 15.6653 71.2887 14.928V10.182H70.2247V9.356H71.2887V7.438H72.2827V9.356H74.3827V10.182H72.2827ZM77.2729 10.182V14.928C77.2729 15.3947 77.3616 15.7167 77.5389 15.894C77.7162 16.0713 78.0289 16.16 78.4769 16.16H79.3729V17H78.3229C77.6322 17 77.1189 16.8413 76.7829 16.524C76.4469 16.1973 76.2789 15.6653 76.2789 14.928V10.182H75.2149V9.356H76.2789V7.438H77.2729V9.356H79.3729V10.182H77.2729ZM87.9051 12.786C87.9051 13.122 87.8958 13.3787 87.8771 13.556H81.5351C81.5631 14.1347 81.7031 14.6293 81.9551 15.04C82.2071 15.4507 82.5385 15.7633 82.9491 15.978C83.3598 16.1833 83.8078 16.286 84.2931 16.286C84.9278 16.286 85.4598 16.132 85.8891 15.824C86.3278 15.516 86.6171 15.1007 86.7571 14.578H87.7931C87.6065 15.3247 87.2051 15.936 86.5891 16.412C85.9825 16.8787 85.2171 17.112 84.2931 17.112C83.5745 17.112 82.9305 16.9533 82.3611 16.636C81.7918 16.3093 81.3438 15.852 81.0171 15.264C80.6998 14.6667 80.5411 13.9713 80.5411 13.178C80.5411 12.3847 80.6998 11.6893 81.0171 11.092C81.3345 10.4947 81.7778 10.0373 82.3471 9.72C82.9165 9.40267 83.5651 9.244 84.2931 9.244C85.0211 9.244 85.6558 9.40267 86.1971 9.72C86.7478 10.0373 87.1678 10.4667 87.4571 11.008C87.7558 11.54 87.9051 12.1327 87.9051 12.786ZM86.9111 12.758C86.9205 12.1887 86.8038 11.7033 86.5611 11.302C86.3278 10.9007 86.0058 10.5973 85.5951 10.392C85.1845 10.1867 84.7365 10.084 84.2511 10.084C83.5231 10.084 82.9025 10.3173 82.3891 10.784C81.8758 11.2507 81.5911 11.9087 81.5351 12.758H86.9111ZM90.6781 10.714C90.8928 10.238 91.2195 9.86933 91.6581 9.608C92.1061 9.34667 92.6521 9.216 93.2961 9.216V10.238H93.0301C92.3208 10.238 91.7515 10.4293 91.3221 10.812C90.8928 11.1947 90.6781 11.834 90.6781 12.73V17H89.6981V9.356H90.6781V10.714Z" fill="black"/>
<path d="M30 2.84083C28.8958 3.32358 27.7097 3.64845 26.4648 3.79497C27.7362 3.04529 28.7112 1.8583 29.1704 0.442993C27.982 1.13702 26.6644 1.64135 25.2613 1.91396C24.1387 0.73605 22.5395 0 20.7696 0C17.3705 0 14.6152 2.71362 14.6152 6.05878C14.6152 6.53358 14.6706 6.99702 14.7744 7.43887C9.65963 7.18671 5.12519 4.7741 2.08838 1.10748C1.55994 2.00256 1.25649 3.04302 1.25649 4.15505C1.25649 6.25642 2.34222 8.11132 3.99331 9.19722C2.98489 9.16541 2.03531 8.8928 1.20572 8.43959C1.20572 8.46571 1.20572 8.48956 1.20572 8.51569C1.20572 11.4519 3.32641 13.9009 6.14284 14.4563C5.62709 14.5949 5.0825 14.6687 4.5206 14.6687C4.12484 14.6687 3.73832 14.6301 3.36333 14.5608C4.14676 16.9678 6.41975 18.7204 9.11273 18.7693C7.00704 20.3947 4.35329 21.3636 1.46879 21.3636C0.972655 21.3636 0.482289 21.3352 0 21.2784C2.72413 22.997 5.95823 24 9.43464 24C20.7557 24 26.9447 14.7676 26.9447 6.76075C26.9447 6.49837 26.939 6.23711 26.9274 5.977C28.1308 5.12168 29.175 4.05509 30 2.84083Z" fill="black" fill-opacity="0.6"/>
</svg>
