<svg width="119" height="27" viewBox="0 0 119 27" fill="none" xmlns="http://www.w3.org/2000/svg">
<path d="M49.1 8.214V18H48.12V8.214H49.1ZM54.9032 10.216C55.8179 10.216 56.5646 10.5007 57.1432 11.07C57.7219 11.63 58.0112 12.4467 58.0112 13.52V18H57.0452V13.632C57.0452 12.8013 56.8352 12.1667 56.4152 11.728C56.0046 11.2893 55.4399 11.07 54.7212 11.07C53.9839 11.07 53.3959 11.3033 52.9572 11.77C52.5186 12.2367 52.2992 12.9227 52.2992 13.828V18H51.3192V10.356H52.2992V11.658C52.5419 11.1913 52.8919 10.8367 53.3492 10.594C53.8066 10.342 54.3246 10.216 54.9032 10.216ZM62.8106 18.112C61.9333 18.112 61.2146 17.9113 60.6546 17.51C60.1039 17.0993 59.7959 16.544 59.7306 15.844H60.7386C60.7853 16.2733 60.9859 16.6233 61.3406 16.894C61.7046 17.1553 62.1899 17.286 62.7966 17.286C63.3286 17.286 63.7439 17.16 64.0426 16.908C64.3506 16.656 64.5046 16.3433 64.5046 15.97C64.5046 15.7087 64.4206 15.494 64.2526 15.326C64.0846 15.158 63.8699 15.0273 63.6086 14.934C63.3566 14.8313 63.0113 14.724 62.5726 14.612C62.0033 14.4627 61.5413 14.3133 61.1866 14.164C60.8319 14.0147 60.5286 13.7953 60.2766 13.506C60.0339 13.2073 59.9126 12.8107 59.9126 12.316C59.9126 11.9427 60.0246 11.5973 60.2486 11.28C60.4726 10.9627 60.7899 10.7107 61.2006 10.524C61.6113 10.3373 62.0779 10.244 62.6006 10.244C63.4219 10.244 64.0846 10.454 64.5886 10.874C65.0926 11.2847 65.3633 11.854 65.4006 12.582H64.4206C64.3926 12.134 64.2153 11.7747 63.8886 11.504C63.5713 11.224 63.1326 11.084 62.5726 11.084C62.0779 11.084 61.6766 11.2007 61.3686 11.434C61.0606 11.6673 60.9066 11.9567 60.9066 12.302C60.9066 12.6007 60.9953 12.848 61.1726 13.044C61.3593 13.2307 61.5879 13.38 61.8586 13.492C62.1293 13.5947 62.4933 13.7113 62.9506 13.842C63.5013 13.9913 63.9399 14.136 64.2666 14.276C64.5933 14.416 64.8733 14.6213 65.1066 14.892C65.3399 15.1627 65.4613 15.522 65.4706 15.97C65.4706 16.3807 65.3586 16.7493 65.1346 17.076C64.9106 17.3933 64.5979 17.6453 64.1966 17.832C63.7953 18.0187 63.3333 18.112 62.8106 18.112ZM68.5893 11.182V15.928C68.5893 16.3947 68.678 16.7167 68.8553 16.894C69.0326 17.0713 69.3453 17.16 69.7933 17.16H70.6893V18H69.6393C68.9486 18 68.4353 17.8413 68.0993 17.524C67.7633 17.1973 67.5953 16.6653 67.5953 15.928V11.182H66.5313V10.356H67.5953V8.438H68.5893V10.356H70.6893V11.182H68.5893ZM71.8575 14.164C71.8575 13.38 72.0115 12.694 72.3195 12.106C72.6369 11.5087 73.0709 11.0513 73.6215 10.734C74.1815 10.4073 74.8115 10.244 75.5115 10.244C76.2395 10.244 76.8649 10.412 77.3875 10.748C77.9195 11.084 78.3022 11.5133 78.5355 12.036V10.356H79.5155V18H78.5355V16.306C78.2929 16.8287 77.9055 17.2627 77.3735 17.608C76.8509 17.944 76.2255 18.112 75.4975 18.112C74.8069 18.112 74.1815 17.9487 73.6215 17.622C73.0709 17.2953 72.6369 16.8333 72.3195 16.236C72.0115 15.6387 71.8575 14.948 71.8575 14.164ZM78.5355 14.178C78.5355 13.562 78.4095 13.0207 78.1575 12.554C77.9055 12.0873 77.5602 11.728 77.1215 11.476C76.6922 11.224 76.2162 11.098 75.6935 11.098C75.1522 11.098 74.6669 11.2193 74.2375 11.462C73.8082 11.7047 73.4675 12.0593 73.2155 12.526C72.9729 12.9833 72.8515 13.5293 72.8515 14.164C72.8515 14.7893 72.9729 15.34 73.2155 15.816C73.4675 16.2827 73.8082 16.642 74.2375 16.894C74.6669 17.1367 75.1522 17.258 75.6935 17.258C76.2162 17.258 76.6922 17.132 77.1215 16.88C77.5602 16.628 77.9055 16.2687 78.1575 15.802C78.4095 15.3353 78.5355 14.794 78.5355 14.178ZM84.9588 10.244C85.6775 10.244 86.3028 10.412 86.8348 10.748C87.3668 11.084 87.7495 11.5087 87.9828 12.022V10.356H88.9628V18.196C88.9628 18.896 88.8088 19.5167 88.5008 20.058C88.2021 20.5993 87.7821 21.0147 87.2408 21.304C86.6995 21.6027 86.0835 21.752 85.3928 21.752C84.4128 21.752 83.5961 21.5187 82.9428 21.052C82.2988 20.5853 81.8975 19.9507 81.7388 19.148H82.7048C82.8728 19.68 83.1901 20.1047 83.6568 20.422C84.1328 20.7393 84.7115 20.898 85.3928 20.898C85.8875 20.898 86.3308 20.7907 86.7228 20.576C87.1148 20.3707 87.4228 20.0627 87.6468 19.652C87.8708 19.2413 87.9828 18.756 87.9828 18.196V16.306C87.7401 16.8287 87.3528 17.2627 86.8208 17.608C86.2981 17.944 85.6775 18.112 84.9588 18.112C84.2588 18.112 83.6288 17.9487 83.0688 17.622C82.5181 17.2953 82.0841 16.8333 81.7668 16.236C81.4588 15.6387 81.3048 14.948 81.3048 14.164C81.3048 13.38 81.4588 12.694 81.7668 12.106C82.0841 11.5087 82.5181 11.0513 83.0688 10.734C83.6288 10.4073 84.2588 10.244 84.9588 10.244ZM87.9828 14.178C87.9828 13.562 87.8568 13.0207 87.6048 12.554C87.3528 12.0873 87.0075 11.728 86.5688 11.476C86.1395 11.224 85.6635 11.098 85.1408 11.098C84.5995 11.098 84.1141 11.2193 83.6848 11.462C83.2555 11.7047 82.9148 12.0593 82.6628 12.526C82.4201 12.9833 82.2988 13.5293 82.2988 14.164C82.2988 14.7893 82.4201 15.34 82.6628 15.816C82.9148 16.2827 83.2555 16.642 83.6848 16.894C84.1141 17.1367 84.5995 17.258 85.1408 17.258C85.6635 17.258 86.1395 17.132 86.5688 16.88C87.0075 16.628 87.3528 16.2687 87.6048 15.802C87.8568 15.3353 87.9828 14.794 87.9828 14.178ZM92.1801 11.714C92.3947 11.238 92.7214 10.8693 93.1601 10.608C93.6081 10.3467 94.1541 10.216 94.7981 10.216V11.238H94.5321C93.8227 11.238 93.2534 11.4293 92.8241 11.812C92.3947 12.1947 92.1801 12.834 92.1801 13.73V18H91.2001V10.356H92.1801V11.714ZM95.8243 14.164C95.8243 13.38 95.9783 12.694 96.2863 12.106C96.6037 11.5087 97.0377 11.0513 97.5883 10.734C98.1483 10.4073 98.7783 10.244 99.4783 10.244C100.206 10.244 100.832 10.412 101.354 10.748C101.886 11.084 102.269 11.5133 102.502 12.036V10.356H103.482V18H102.502V16.306C102.26 16.8287 101.872 17.2627 101.34 17.608C100.818 17.944 100.192 18.112 99.4643 18.112C98.7737 18.112 98.1483 17.9487 97.5883 17.622C97.0377 17.2953 96.6037 16.8333 96.2863 16.236C95.9783 15.6387 95.8243 14.948 95.8243 14.164ZM102.502 14.178C102.502 13.562 102.376 13.0207 102.124 12.554C101.872 12.0873 101.527 11.728 101.088 11.476C100.659 11.224 100.183 11.098 99.6603 11.098C99.119 11.098 98.6337 11.2193 98.2043 11.462C97.775 11.7047 97.4343 12.0593 97.1823 12.526C96.9397 12.9833 96.8183 13.5293 96.8183 14.164C96.8183 14.7893 96.9397 15.34 97.1823 15.816C97.4343 16.2827 97.775 16.642 98.2043 16.894C98.6337 17.1367 99.119 17.258 99.6603 17.258C100.183 17.258 100.659 17.132 101.088 16.88C101.527 16.628 101.872 16.2687 102.124 15.802C102.376 15.3353 102.502 14.794 102.502 14.178ZM114.82 10.216C115.716 10.216 116.444 10.5007 117.004 11.07C117.573 11.63 117.858 12.4467 117.858 13.52V18H116.892V13.632C116.892 12.8013 116.691 12.1667 116.29 11.728C115.888 11.2893 115.342 11.07 114.652 11.07C113.933 11.07 113.359 11.308 112.93 11.784C112.5 12.26 112.286 12.9507 112.286 13.856V18H111.32V13.632C111.32 12.8013 111.119 12.1667 110.718 11.728C110.316 11.2893 109.766 11.07 109.066 11.07C108.347 11.07 107.773 11.308 107.344 11.784C106.914 12.26 106.7 12.9507 106.7 13.856V18H105.72V10.356H106.7V11.672C106.942 11.196 107.288 10.8367 107.736 10.594C108.184 10.342 108.683 10.216 109.234 10.216C109.896 10.216 110.475 10.3747 110.97 10.692C111.474 11.0093 111.838 11.476 112.062 12.092C112.267 11.4853 112.617 11.0233 113.112 10.706C113.616 10.3793 114.185 10.216 114.82 10.216Z" fill="black"/>
<path d="M7.8728 0C3.53143 0 0 3.5347 0 7.8772V19.1272C0 23.4686 3.5347 27 7.8772 27H19.1272C23.4686 27 27 23.4653 27 19.1228V7.8728C27 3.53143 23.4653 0 19.1228 0H7.8728ZM21.375 4.5C21.996 4.5 22.5 5.004 22.5 5.625C22.5 6.246 21.996 6.75 21.375 6.75C20.754 6.75 20.25 6.246 20.25 5.625C20.25 5.004 20.754 4.5 21.375 4.5ZM13.5 6.75C17.2226 6.75 20.25 9.77737 20.25 13.5C20.25 17.2226 17.2226 20.25 13.5 20.25C9.77737 20.25 6.75 17.2226 6.75 13.5C6.75 9.77737 9.77737 6.75 13.5 6.75ZM13.5 9C12.3065 9 11.1619 9.47411 10.318 10.318C9.47411 11.1619 9 12.3065 9 13.5C9 14.6935 9.47411 15.8381 10.318 16.682C11.1619 17.5259 12.3065 18 13.5 18C14.6935 18 15.8381 17.5259 16.682 16.682C17.5259 15.8381 18 14.6935 18 13.5C18 12.3065 17.5259 11.1619 16.682 10.318C15.8381 9.47411 14.6935 9 13.5 9V9Z" fill="black" fill-opacity="0.6"/>
</svg>
