<svg width="59" height="59" viewBox="0 0 59 59" fill="none" xmlns="http://www.w3.org/2000/svg">
<path d="M29.5 0C13.2086 0 0 13.2086 0 29.5C0 45.7914 13.2086 59 29.5 59C45.7914 59 59 45.7914 59 29.5C59 13.2086 45.7914 0 29.5 0ZM45.988 23.863L27.403 42.448C26.9409 42.9102 26.3165 43.1683 25.665 43.1683C25.0135 43.1683 24.3867 42.9102 23.927 42.448L15.4383 33.9594C14.4771 32.9982 14.4771 31.4445 15.4383 30.4833C16.3995 29.5221 17.9532 29.5221 18.9144 30.4833L25.665 37.2339L42.512 20.387C43.4732 19.4258 45.0268 19.4258 45.988 20.387C46.9492 21.3482 46.9492 22.9018 45.988 23.863Z" fill="black"/>
</svg>
